<?xml version="1.0" encoding="UTF-8" standalone="no"?>
<svg
   enable-background="new 0 0 24 24"
   height="24px"
   viewBox="0 0 24 24"
   width="24px"
   fill="#000000"
   version="1.1"
   id="svg14"
   sodipodi:docname="brinqueodos.svg"
   inkscape:version="1.1.1 (3bf5ae0d25, 2021-09-20)"
   xmlns:inkscape="http://www.inkscape.org/namespaces/inkscape"
   xmlns:sodipodi="http://sodipodi.sourceforge.net/DTD/sodipodi-0.dtd"
   xmlns="http://www.w3.org/2000/svg"
   xmlns:svg="http://www.w3.org/2000/svg">
  <defs
     id="defs18" />
  <sodipodi:namedview
     id="namedview16"
     pagecolor="#ffffff"
     bordercolor="#666666"
     borderopacity="1.0"
     inkscape:pageshadow="2"
     inkscape:pageopacity="0.0"
     inkscape:pagecheckerboard="0"
     showgrid="false"
     inkscape:zoom="21.666667"
     inkscape:cx="11.976923"
     inkscape:cy="11.976923"
     inkscape:window-width="1280"
     inkscape:window-height="961"
     inkscape:window-x="1358"
     inkscape:window-y="-8"
     inkscape:window-maximized="1"
     inkscape:current-layer="svg14" />
  <g
     id="g4">
    <path
       d="M0,0h24v24H0V0z"
       fill="none"
       id="path2" />
  </g>
  <path
     style="opacity:1;fill:#000000;stroke-width:0.36971;-inkscape-stroke:none;stop-color:#000000"
     d="M 11.135865,20.662855 C 7.784603,20.490117 4.5113839,19.108236 2.0104934,16.810327 l -0.4493554,-0.412886 0.7534841,-0.76003 0.7534841,-0.76003 0.629148,0.531068 c 0.3460314,0.292087 0.7273852,0.600646 0.847453,0.685683 l 0.2183048,0.154616 0.6280419,-1.088993 0.628042,-1.088992 5.185e-4,-3.024508 C 6.0198947,9.3827754 5.9967947,8.0224245 5.9682778,8.0232523 5.9397611,8.0240802 5.4186815,8.3475421 4.8103235,8.7420566 L 3.7042178,9.459356 3.0336486,8.7578343 C 2.6648356,8.3719975 2.3615207,8.0372339 2.3596155,8.013915 2.3564809,7.9755495 4.0003971,6.0346769 4.4116042,5.5912558 L 4.5819718,5.4075416 3.8760948,4.8653739 3.1702178,4.3232062 5.7528809,4.305065 c 1.4204648,-0.00998 2.6150662,-0.00571 2.6546697,0.0095 0.039603,0.015197 0.6463433,1.0265653 1.3483114,2.2474847 l 1.276306,2.2198527 4.199744,1.513e-4 4.199745,1.513e-4 v 0.7258753 0.7258817 h -0.725881 -0.725881 l 4.84e-4,1.918403 4.83e-4,1.918402 0.628042,1.088992 0.628042,1.088993 0.218304,-0.154616 c 0.120068,-0.08503 0.501422,-0.393596 0.847454,-0.685683 l 0.629147,-0.531068 0.753486,0.76003 0.753483,0.76003 -0.449355,0.414402 c -0.991609,0.914471 -2.417016,1.877178 -3.634047,2.454402 -2.251046,1.067677 -4.639015,1.529622 -7.219553,1.39661 z m 2.868963,-2.303245 c 1.259609,-0.224288 3.18266,-0.841374 3.261393,-1.046547 0.0305,-0.07948 -0.997007,-1.949801 -1.183433,-2.154164 -0.06342,-0.06951 -0.183488,-0.05167 -0.594788,0.0884 -2.118697,0.721579 -4.675718,0.722195 -7.0109784,0.0016 -0.3026608,-0.09338 -0.5565327,-0.163366 -0.5641595,-0.15552 -0.064036,0.06586 -1.2772641,2.207529 -1.2593662,2.223105 0.088011,0.0766 0.5834705,0.291385 1.1211126,0.486002 0.7224309,0.26151 1.9621948,0.552677 2.7736375,0.651408 0.761716,0.09269 2.703857,0.03965 3.456582,-0.09438 z"
     id="path872" />
</svg>
