<?xml version="1.0" encoding="UTF-8" standalone="no"?>
<svg
   height="24px"
   viewBox="0 0 24 24"
   width="24px"
   fill="#000000"
   version="1.1"
   id="svg6"
   sodipodi:docname="sustentáveis.svg"
   inkscape:version="1.1.1 (3bf5ae0d25, 2021-09-20)"
   xmlns:inkscape="http://www.inkscape.org/namespaces/inkscape"
   xmlns:sodipodi="http://sodipodi.sourceforge.net/DTD/sodipodi-0.dtd"
   xmlns="http://www.w3.org/2000/svg"
   xmlns:svg="http://www.w3.org/2000/svg">
  <defs
     id="defs10" />
  <sodipodi:namedview
     id="namedview8"
     pagecolor="#ffffff"
     bordercolor="#666666"
     borderopacity="1.0"
     inkscape:pageshadow="2"
     inkscape:pageopacity="0.0"
     inkscape:pagecheckerboard="0"
     showgrid="false"
     showguides="true"
     inkscape:guide-bbox="true"
     inkscape:snap-global="true"
     inkscape:snap-bbox="true"
     inkscape:bbox-nodes="true"
     inkscape:snap-bbox-edge-midpoints="true"
     inkscape:zoom="15.320647"
     inkscape:cx="28.556235"
     inkscape:cy="16.024128"
     inkscape:window-width="1280"
     inkscape:window-height="961"
     inkscape:window-x="1358"
     inkscape:window-y="-8"
     inkscape:window-maximized="1"
     inkscape:current-layer="svg6" />
  <path
     d="M0 0h24v24H0z"
     fill="none"
     id="path2" />
  <path
     id="path929"
     style="stroke-width:5.44727;stop-color:#000000"
     d="M 21.577582,2.9074539 10.972252,5.9808552 C 5.9289053,7.4425852 5.397958,13.823874 7.0088853,16.611495 l -3.4443329,3.397813 c -0.1622315,0.160041 -0.164001,0.420136 -0.00396,0.582368 l 0.015364,0.0156 c 0.1600403,0.162234 0.4201373,0.164 0.5823686,0.0039 l 3.4273389,-3.381049 c 2.7125831,1.715087 9.2270591,1.319846 10.7745911,-3.760154 z m -3.7345,6.5568219 -0.08634,0.2835731 -2.267664,-0.6245431 -0.753449,0.7432724 -0.754865,0.7446698 3.240733,0.891409 -0.08635,0.286392 -3.399393,-0.936097 -0.753447,0.743271 -0.754865,0.744669 3.918931,1.077491 0.454947,0.124069 -0.03023,0.09967 c -0.01947,0.06387 -0.04453,0.123258 -0.06598,0.185241 l -0.438082,-0.121152 -4.0832,-1.125032 -0.753448,0.743272 -0.754864,0.744669 3.91893,1.077491 1.159805,0.320187 c -0.07542,0.08492 -0.153331,0.166165 -0.233752,0.24462 l -1.005354,-0.276933 -4.084615,-1.123636 -0.7534487,0.743272 -0.7548634,0.744669 3.9189311,1.077491 0.456343,0.125488 c -0.190013,0.0589 -0.38289,0.110701 -0.576398,0.152239 l -4.0424637,-1.114904 -0.04957,0.0489 -1.0324484,1.01851 L 3.894212,20.561609 3.6860249,20.350571 7.1884271,16.895474 8.2492015,15.849026 8.3922435,15.707916 9.1456922,14.964644 8.0777009,10.865128 7.8692974,10.067487 C 7.9375445,9.9485501 8.008139,9.8309861 8.085505,9.7172686 L 8.3665988,10.78972 9.3907033,14.722941 10.145568,13.978273 10.899015,13.235001 9.8296085,9.1368825 9.6047457,8.2772321 C 9.6920959,8.2251027 9.78209,8.1758809 9.8744472,8.1285417 l 0.2440598,0.9329323 1.025521,3.931824 0.753449,-0.743273 0.753447,-0.743271 -1.037847,-3.9811435 0.286137,-0.083872 0.996719,3.8233095 0.754864,-0.744668 0.753448,-0.7432726 -0.741712,-2.8452859 0.286139,-0.083872 0.70058,2.6874498 0.75345,-0.7432726 0.834174,-0.8229078 0.20817,0.2110206 -0.712377,0.7027557 z" />
</svg>
